<?xml version="1.0" encoding="UTF-8"?>
<svg version="1.1" xmlns="http://www.w3.org/2000/svg" width="512" height="512">
<path d="M0 0 C5.01791684 2.41935276 8.49958655 5.9991731 11 11 C11.51457231 16.63498856 11.83428571 21.44266668 9.125 26.5 C8.42375 27.325 7.7225 28.15 7 29 C6.30669173 30.31967643 5.63446546 31.65104641 5 33 C7.45542014 36.07403375 10.00273759 39.04175357 12.64160156 41.95996094 C13.93259554 43.42358244 15.15242026 44.9490829 16.3671875 46.4765625 C22.86247725 53.53666006 28.16746009 55.46835414 37.61328125 57.06628418 C60.24135057 60.94983069 73.16976983 73.42958835 88.74560547 89.61669922 C92.2774272 93.28538248 95.90760819 96.83442865 99.5767746 100.36503601 C116.56808693 116.81385008 126.61837613 129.78879831 130.5859375 153.2421875 C132.21141989 162.50365692 136.23422816 167.22170901 143.5 173 C144.52908031 173.90770495 145.55253047 174.82183196 146.5703125 175.7421875 C149.00032296 177.89710244 151.4629477 179.97350002 154 182 C156.54056427 180.80507359 158.32976716 179.71969791 160.5 177.875 C165.62238687 175.13086418 170.30371848 175.22536831 176 176 C181.01791684 178.41935276 184.49958655 181.9991731 187 187 C187.17455695 188.9115417 187.26715146 190.83104056 187.3125 192.75 C187.34988281 193.77609375 187.38726562 194.8021875 187.42578125 195.859375 C186.36002722 203.72053316 179.0474458 209.23574471 173.70507812 214.55371094 C172.75491132 215.50659115 171.80516978 216.45989557 170.8558197 217.41358948 C168.28821024 219.99028116 165.71435769 222.56064913 163.13902855 225.12962246 C160.44063539 227.82293696 157.74714243 230.52114494 155.05285645 233.21856689 C150.53052724 237.74452906 146.00400985 242.26627033 141.47509766 246.78564453 C136.2408088 252.00903698 131.01378148 257.23961305 125.79044199 262.47395301 C121.30059873 266.97287255 116.80686935 271.46788253 112.30986929 275.95964837 C109.62605737 278.64034417 106.9436106 281.32236849 104.2646637 284.00792694 C101.74767683 286.53069203 99.22584592 289.04851251 96.70019722 291.5626049 C95.33313556 292.92576263 93.97099059 294.29384557 92.60899353 295.6620636 C91.79310257 296.47231491 90.97721161 297.28256622 90.13659668 298.11737061 C89.43016777 298.82304546 88.72373886 299.52872032 87.99590302 300.25577927 C83.25184348 304.40161548 79.03911717 304.42817732 72.9140625 304.31640625 C67.64048686 303.74380621 65.07301726 301.21801959 61.6875 297.375 C58.05750138 292.26611305 58.39925786 287.11955991 59 281 C60.875 277.5 60.875 277.5 63 275 C63.69330827 273.68032357 64.36553454 272.34895359 65 271 C50.40135786 253.31283546 38.5242403 244.47536872 15 242 C11.3609379 241.64395228 11.3609379 241.64395228 8.2265625 243.25341797 C7.43378906 244.11410889 7.43378906 244.11410889 6.625 244.9921875 C5.73554687 245.92611328 5.73554687 245.92611328 4.828125 246.87890625 C4.22484375 247.53761719 3.6215625 248.19632813 3 248.875 C-2.05566732 254.33036751 -5.21437158 257.6995533 -12.9375 258.3125 C-18.45921028 258.14643353 -21.86839989 256.0578001 -25.875 252.3125 C-26.57625 251.549375 -27.2775 250.78625 -28 250 C-31.29115453 251.4391413 -33.46086706 253.21426399 -35.98933983 255.75162411 C-36.77736783 256.53752011 -37.56539584 257.32341612 -38.37730348 258.13312715 C-39.23702276 259.00071848 -40.09674205 259.8683098 -40.98251343 260.76219177 C-42.35948881 262.13977892 -42.35948881 262.13977892 -43.76428187 263.54519612 C-46.3135154 266.09578065 -48.85647027 268.65254635 -51.39848089 271.21032679 C-54.14062823 273.96726703 -56.88858683 276.7184036 -59.63591003 279.47018433 C-64.39655113 284.24001478 -69.15367853 289.01332633 -73.9086113 293.78884697 C-80.7884906 300.69824092 -87.67530138 307.60069322 -94.56412275 314.50117052 C-105.74690137 325.70296854 -116.92630568 336.90812685 -128.10253906 348.11645508 C-128.77159152 348.78742547 -129.44064397 349.45839586 -130.12997074 350.14969868 C-137.59406199 357.63533556 -145.05733902 365.12178342 -152.51971436 372.60913086 C-155.22537312 375.32382118 -157.93103941 378.03850401 -160.63671875 380.75317383 C-161.30434944 381.42302618 -161.97198013 382.09287853 -162.65984206 382.78302943 C-173.78973577 393.94963692 -184.9254449 405.11042523 -196.06573546 416.26666027 C-202.93815776 423.1494206 -209.80549458 430.03718014 -216.66638936 436.93143178 C-221.36768517 441.65485352 -226.07433547 446.37289442 -230.78524755 451.08672529 C-233.50374738 453.80727512 -236.21970267 456.53024694 -238.92913246 459.25983238 C-241.86585634 462.21829948 -244.81405975 465.16505431 -247.76351929 468.11082458 C-248.61877713 468.97618519 -249.47403497 469.84154579 -250.35520971 470.73312944 C-256.43646649 476.77804981 -260.98747999 480.42760298 -269.875 480.4375 C-276.92022344 480.25951541 -281.5943892 479.22234923 -286.7421875 474.3515625 C-291.58971298 469.04015898 -293.30157651 464.43941823 -293.4375 457.1875 C-293.47746094 456.02605469 -293.51742188 454.86460937 -293.55859375 453.66796875 C-292.41226831 446.1406989 -287.12779816 440.68380692 -281.85600281 435.49523926 C-281.25553204 434.89220521 -280.65506127 434.28917117 -280.03639442 433.66786337 C-278.04131394 431.66787832 -276.03577167 429.67874091 -274.0300293 427.68945312 C-272.59024173 426.25051255 -271.15111597 424.81090952 -269.71260071 423.37069702 C-265.81888238 419.47612013 -261.91600272 415.590844 -258.01138282 411.707201 C-253.92740629 407.6420143 -249.85195835 403.5682956 -245.77558899 399.4954834 C-238.06107718 391.79028526 -230.33895187 384.09276464 -222.61404592 376.3979888 C-213.81735674 367.63486467 -205.02921339 358.8631916 -196.24176919 350.09079838 C-178.17065671 332.05101955 -160.08886574 314.02197598 -142 296 C-146.23785471 294.22309443 -150.48732625 292.47909317 -154.75024414 290.76318359 C-156.19585665 290.17616068 -157.63802962 289.58058726 -159.07641602 288.97607422 C-170.26224447 284.14503237 -170.26224447 284.14503237 -182 286 C-205.97162143 291.66740493 -230.82537146 288.62028983 -252 276 C-272.20498226 263.35135257 -286.48087184 243.74062889 -292.45703125 220.6328125 C-297.49978728 196.18088758 -293.35119912 171.14728938 -280 150 C-266.25763489 130.58853827 -246.50376153 116.35150943 -222.921875 111.6953125 C-199.43264349 107.88440399 -175.05226785 111.73629813 -155.25 125.3125 C-135.3414608 139.80900913 -121.67417821 159.32746856 -117.3203125 183.82421875 C-114.40105234 203.91912601 -116.14250282 226.00511494 -127.9609375 243.1796875 C-130.65888936 250.5026997 -127.35790277 259.3629727 -125.4375 266.625 C-125.20353516 267.53378906 -124.96957031 268.44257813 -124.72851562 269.37890625 C-124.15887105 271.58773215 -123.58135989 273.79423935 -123 276 C-116.14092885 270.38062338 -109.96990509 264.09685489 -103.72265625 257.8203125 C-102.54460742 256.64039553 -101.36633534 255.46070142 -100.18785095 254.28121948 C-97.10652858 251.19610309 -94.02822284 248.10799411 -90.95056152 245.01922607 C-87.80155966 241.85994267 -84.64967829 238.70353484 -81.49804688 235.546875 C-75.3292289 229.36737473 -69.16359871 223.1847061 -63 217 C-64.30340509 214.19313229 -65.5255657 212.3718849 -67.5625 209.9375 C-70.84147985 205.9859089 -71.12667988 203.27666901 -71.328125 198.23046875 C-70.23693305 190.8129616 -64.78381064 186.66197583 -59.38671875 182.11914062 C-56.06748802 179.10879519 -56.06748802 179.10879519 -54.7746582 174.9699707 C-55.02346723 172.59449367 -55.4904861 170.33307385 -56 168 C-56.21519719 166.21519787 -56.4272968 164.43002024 -56.63671875 162.64453125 C-59.75494675 143.62951836 -69.86330009 134.03825549 -84 122 C-86.54056427 123.19492641 -88.32976716 124.28030209 -90.5 126.125 C-95.62238687 128.86913582 -100.30371848 128.77463169 -106 128 C-111.01791684 125.58064724 -114.49958655 122.0008269 -117 117 C-117.17455695 115.0884583 -117.26715146 113.16895944 -117.3125 111.25 C-117.36857422 109.71085937 -117.36857422 109.71085937 -117.42578125 108.140625 C-116.36002722 100.27946684 -109.0474458 94.76425529 -103.70507812 89.44628906 C-102.75491132 88.49340885 -101.80516978 87.54010443 -100.8558197 86.58641052 C-98.28821024 84.00971884 -95.71435769 81.43935087 -93.13902855 78.87037754 C-90.44063539 76.17706304 -87.74714243 73.47885506 -85.05285645 70.78143311 C-80.53052724 66.25547094 -76.00400985 61.73372967 -71.47509766 57.21435547 C-66.2408088 51.99096302 -61.01378148 46.76038695 -55.79044199 41.52604699 C-51.30059873 37.02712745 -46.80686935 32.53211747 -42.30986929 28.04035163 C-39.62605737 25.35965583 -36.9436106 22.67763151 -34.2646637 19.99207306 C-31.74767683 17.46930797 -29.22584592 14.95148749 -26.70019722 12.4373951 C-25.33313556 11.07423737 -23.97099059 9.70615443 -22.60899353 8.3379364 C-21.38515709 7.12255943 -21.38515709 7.12255943 -20.13659668 5.88262939 C-19.43016777 5.17695454 -18.72373886 4.47127968 -17.99590302 3.74422073 C-12.61900386 -0.95465437 -6.86096716 -0.74495756 0 0 Z " fill="#674025" transform="translate(309,16)"/>
<path d="M0 0 C18.06904561 14.33062238 28.9558572 35.07456498 32.25 57.75 C34.40303422 76.58904941 32.0192012 97.2233283 21.0390625 113.1796875 C18.34111064 120.5026997 21.64209723 129.3629727 23.5625 136.625 C23.79646484 137.53378906 24.03042969 138.44257813 24.27148438 139.37890625 C24.84112895 141.58773215 25.41864011 143.79423935 26 146 C32.94103433 140.31978209 39.17673906 133.94998244 45.49609375 127.6015625 C46.69656287 126.39922532 47.89725518 125.19711095 49.09815979 123.99520874 C52.23866548 120.85090837 55.37615481 117.70361521 58.51300049 114.55566406 C61.72232618 111.33605827 64.93453005 108.11932679 68.14648438 104.90234375 C74.43379102 98.60435365 80.71791106 92.30319435 87 86 C91.66874537 89.89976721 96.09127809 93.95214644 100.37109375 98.2734375 C100.93828629 98.84204498 101.50547882 99.41065247 102.08985901 99.99649048 C103.87479913 101.78696236 105.65620256 103.58090484 107.4375 105.375 C108.65796939 106.60049323 109.87867053 107.82575572 111.09960938 109.05078125 C114.06908756 112.03119774 117.03540257 115.01472894 120 118 C115.24317362 123.71814594 110.15129315 128.9945607 104.89086914 134.24957275 C103.98342736 135.15998565 103.07598558 136.07039855 102.14104557 137.00839972 C99.63727597 139.52018468 97.13042644 142.02887534 94.62301683 144.53702593 C91.91365461 147.2482481 89.20714186 149.96231246 86.50021362 152.67596436 C80.58990078 158.5998183 74.67584872 164.51992961 68.76096725 170.43922138 C65.06676489 174.1361912 61.37329848 177.83389567 57.67996216 181.53173065 C47.44924345 191.77463247 37.21758561 202.01659413 26.98246765 212.25510025 C26.00133325 213.236564 26.00133325 213.236564 25.00037795 214.2378553 C24.34476086 214.89369068 23.68914376 215.54952605 23.01365948 216.22523522 C21.68521154 217.55412662 20.35676515 218.88301957 19.02832031 220.21191406 C18.0398959 221.20067062 18.0398959 221.20067062 17.03150332 222.20940205 C6.34129036 232.90356775 -4.3421456 243.60447648 -15.02269685 254.30829075 C-25.99422878 265.30352625 -36.97136811 276.29313727 -47.954175 287.27711082 C-54.11830971 293.44216241 -60.28000242 299.60961164 -66.43551636 305.78327179 C-71.67329076 311.03643316 -76.91615835 316.28444321 -82.16576457 321.5257819 C-84.84372143 324.1998284 -87.51918823 326.87624785 -90.1881752 329.55924988 C-93.08099289 332.46711905 -95.98528738 335.36324672 -98.89086914 338.25836182 C-99.7330899 339.10863898 -100.57531065 339.95891613 -101.44305325 340.83495927 C-107.49240754 346.83330749 -112.04828568 350.4276707 -120.875 350.4375 C-127.92022344 350.25951541 -132.5943892 349.22234923 -137.7421875 344.3515625 C-142.58971298 339.04015898 -144.30157651 334.43941823 -144.4375 327.1875 C-144.47746094 326.02605469 -144.51742187 324.86460937 -144.55859375 323.66796875 C-143.41226831 316.1406989 -138.12779816 310.68380692 -132.85600281 305.49523926 C-132.25553204 304.89220521 -131.65506127 304.28917117 -131.03639442 303.66786337 C-129.04131394 301.66787832 -127.03577167 299.67874091 -125.0300293 297.68945312 C-123.59024173 296.25051255 -122.15111597 294.81090952 -120.71260071 293.37069702 C-116.81888238 289.47612013 -112.91600272 285.590844 -109.01138282 281.707201 C-104.92740629 277.6420143 -100.85195835 273.5682956 -96.77558899 269.4954834 C-89.06107718 261.79028526 -81.33895187 254.09276464 -73.61404592 246.3979888 C-64.81735674 237.63486467 -56.02921339 228.8631916 -47.24176919 220.09079838 C-29.17065671 202.05101955 -11.08886574 184.02197598 7 166 C2.76214529 164.22309443 -1.48732625 162.47909317 -5.75024414 160.76318359 C-7.19585665 160.17616068 -8.63802962 159.58058726 -10.07641602 158.97607422 C-21.26224447 154.14503237 -21.26224447 154.14503237 -33 156 C-56.97162143 161.66740493 -81.82537146 158.62028983 -103 146 C-123.20498226 133.35135257 -137.48087184 113.74062889 -143.45703125 90.6328125 C-148.49978728 66.18088758 -144.35119912 41.14728938 -131 20 C-117.25763489 0.58853827 -97.50376153 -13.64849057 -73.921875 -18.3046875 C-47.07845711 -22.65978144 -21.50968924 -16.63120302 0 0 Z " fill="#976846" transform="translate(160,146)"/>
<path d="M0 0 C0.78211294 -0.00453111 1.56422589 -0.00906223 2.37003922 -0.01373065 C4.98147435 -0.02635485 7.5927004 -0.02475556 10.2041626 -0.02310181 C12.08042671 -0.02908835 13.95668836 -0.03589419 15.83294678 -0.04345703 C20.92402284 -0.06111278 26.01503165 -0.06581227 31.10613537 -0.0670886 C34.28927241 -0.06851116 37.4723924 -0.07278277 40.65552521 -0.07808304 C51.76745182 -0.09658287 62.87933047 -0.10475383 73.99127197 -0.10317993 C84.33751553 -0.10197899 94.68355031 -0.12307226 105.02974105 -0.15466726 C113.92167443 -0.18085037 122.81353971 -0.19154635 131.70551133 -0.19026911 C137.01214072 -0.18976002 142.3185846 -0.19541394 147.62517548 -0.21662521 C152.61900257 -0.23604146 157.61246786 -0.23610885 162.60630798 -0.22159195 C164.43398316 -0.21950687 166.26168118 -0.22418676 168.08931732 -0.23631287 C179.94081844 -0.30982142 190.41331384 0.05390767 199.52545166 8.56430054 C207.2084049 17.10962608 208.35122586 25.48533277 208.18170166 36.64242554 C208.14045166 40.47867554 208.09920166 44.31492554 208.05670166 48.26742554 C218.61670166 48.26742554 229.17670166 48.26742554 240.05670166 48.26742554 C240.05670166 64.10742554 240.05670166 79.94742554 240.05670166 96.26742554 C139.73670166 96.26742554 39.41670166 96.26742554 -63.94329834 96.26742554 C-63.94329834 80.42742554 -63.94329834 64.58742554 -63.94329834 48.26742554 C-53.38329834 48.26742554 -42.82329834 48.26742554 -31.94329834 48.26742554 C-32.10024718 40.81880828 -32.10024718 40.81880828 -32.3036499 33.37142944 C-32.4035798 23.87325347 -30.23806966 15.85639786 -23.64642334 8.79867554 C-16.67513172 2.53090876 -9.3456737 -0.04004829 0 0 Z " fill="#442518" transform="translate(255.94329833984375,399.7325744628906)"/>
<path d="M0 0 C1.10146846 0.93481392 2.20159002 1.87121498 3.30116272 2.80825806 C4.22033021 3.59018241 4.22033021 3.59018241 5.15806675 4.38790321 C8.02071428 6.89334953 10.69518224 9.57159392 13.37109375 12.2734375 C13.93828629 12.84204498 14.50547882 13.41065247 15.08985901 13.99649048 C16.87479913 15.78696236 18.65620256 17.58090484 20.4375 19.375 C21.65796939 20.60049323 22.87867053 21.82575572 24.09960938 23.05078125 C27.06908756 26.03119774 30.03540257 29.01472894 33 32 C28.24317362 37.71814594 23.15129315 42.9945607 17.89086914 48.24957275 C16.98342736 49.15998565 16.07598558 50.07039855 15.14104557 51.00839972 C12.63727597 53.52018468 10.13042644 56.02887534 7.62301683 58.53702593 C4.91365461 61.2482481 2.20714186 63.96231246 -0.49978638 66.67596436 C-6.41009922 72.5998183 -12.32415128 78.51992961 -18.23903275 84.43922138 C-21.93323511 88.1361912 -25.62670152 91.83389567 -29.32003784 95.53173065 C-39.55075655 105.77463247 -49.78241439 116.01659413 -60.01753235 126.25510025 C-60.67162195 126.90940942 -61.32571155 127.56371858 -61.99962205 128.2378553 C-62.65523914 128.89369068 -63.31085624 129.54952605 -63.98634052 130.22523522 C-65.31478846 131.55412662 -66.64323485 132.88301957 -67.97167969 134.21191406 C-68.9601041 135.20067062 -68.9601041 135.20067062 -69.96849668 136.20940205 C-80.65870964 146.90356775 -91.3421456 157.60447648 -102.02269685 168.30829075 C-112.99422878 179.30352625 -123.97136811 190.29313727 -134.954175 201.27711082 C-141.11830971 207.44216241 -147.28000242 213.60961164 -153.43551636 219.78327179 C-158.67329076 225.03643316 -163.91615835 230.28444321 -169.16576457 235.5257819 C-171.84372143 238.1998284 -174.51918823 240.87624785 -177.1881752 243.55924988 C-180.08099289 246.46711905 -182.98528738 249.36324672 -185.89086914 252.25836182 C-187.15420027 253.53377756 -187.15420027 253.53377756 -188.44305325 254.83495927 C-194.49240754 260.83330749 -199.04828568 264.4276707 -207.875 264.4375 C-214.92022344 264.25951541 -219.5943892 263.22234923 -224.7421875 258.3515625 C-229.58971298 253.04015898 -231.30157651 248.43941823 -231.4375 241.1875 C-231.47746094 240.02605469 -231.51742187 238.86460937 -231.55859375 237.66796875 C-230.40931972 230.12133721 -225.10197067 224.65837014 -219.81803894 219.45727539 C-218.91120746 218.546599 -218.91120746 218.546599 -217.98605615 217.6175251 C-215.9771569 215.60372077 -213.95779351 213.60076363 -211.93823242 211.59765625 C-210.48859277 210.14886358 -209.0396149 208.69940848 -207.59124756 207.24934387 C-203.67067081 203.32790851 -199.74093185 199.4157738 -195.80945373 195.50527191 C-191.69745032 191.4120576 -187.59397481 187.31031201 -183.48957825 183.20947266 C-175.72194249 175.45115078 -167.94669296 167.70050624 -160.16866332 159.9526062 C-151.3115161 151.12902336 -142.46291414 142.29689218 -133.61501157 133.46404076 C-115.41948484 115.29984817 -97.21327946 97.14639061 -79 79 C-77.58625167 79.46528381 -76.17302395 79.9321496 -74.76000977 80.3996582 C-73.97296158 80.65946976 -73.18591339 80.91928131 -72.37501526 81.18696594 C-68.84422639 82.39565359 -65.39218122 83.77849104 -61.9375 85.1875 C-61.26267578 85.46013672 -60.58785156 85.73277344 -59.89257812 86.01367188 C-58.26073506 86.67335311 -56.63021848 87.33631421 -55 88 C-55.26554688 87.154375 -55.53109375 86.30875 -55.8046875 85.4375 C-61.6921706 66.52879516 -61.6921706 66.52879516 -61 61 C-59.19848706 58.6371939 -57.51875618 56.7574898 -55.40039062 54.71923828 C-54.80542282 54.12339432 -54.21045502 53.52755035 -53.59745789 52.91365051 C-51.63094417 50.95131081 -49.6440505 49.01106651 -47.65625 47.0703125 C-46.28731105 45.71256619 -44.91969245 44.35348746 -43.55334473 42.99313354 C-39.95622357 39.41890458 -36.34144932 35.8630596 -32.72271729 32.31072998 C-29.0321899 28.68161511 -25.35862133 25.03542313 -21.68359375 21.390625 C-14.47223701 14.24358798 -7.24211802 7.11585528 0 0 Z " fill="#C08D58" transform="translate(247,232)"/>
<path d="M0 0 C1.74364773 3.30320647 2.42946346 6.02986453 2.953125 9.7421875 C6.56746024 30.69614419 14.90973938 40.71941134 31 54 C33.54056427 52.80507359 35.32976716 51.71969791 37.5 49.875 C42.62238687 47.13086418 47.30371848 47.22536831 53 48 C58.01791684 50.41935276 61.49958655 53.9991731 64 59 C64.17455695 60.9115417 64.26715146 62.83104056 64.3125 64.75 C64.36857422 66.28914063 64.36857422 66.28914063 64.42578125 67.859375 C63.36002722 75.72053316 56.0474458 81.23574471 50.70507812 86.55371094 C49.75491132 87.50659115 48.80516978 88.45989557 47.8558197 89.41358948 C45.28821024 91.99028116 42.71435769 94.56064913 40.13902855 97.12962246 C37.44063539 99.82293696 34.74714243 102.52114494 32.05285645 105.21856689 C27.53052724 109.74452906 23.00400985 114.26627033 18.47509766 118.78564453 C13.2408088 124.00903698 8.01378148 129.23961305 2.79044199 134.47395301 C-1.69940127 138.97287255 -6.19313065 143.46788253 -10.69013071 147.95964837 C-13.37394263 150.64034417 -16.0563894 153.32236849 -18.7353363 156.00792694 C-21.25232317 158.53069203 -23.77415408 161.04851251 -26.29980278 163.5626049 C-27.66686444 164.92576263 -29.02900941 166.29384557 -30.39100647 167.6620636 C-31.20689743 168.47231491 -32.02278839 169.28256622 -32.86340332 170.11737061 C-33.56983223 170.82304546 -34.27626114 171.52872032 -35.00409698 172.25577927 C-39.74815652 176.40161548 -43.96088283 176.42817732 -50.0859375 176.31640625 C-55.35951314 175.74380621 -57.92698274 173.21801959 -61.3125 169.375 C-64.94249862 164.26611305 -64.60074214 159.11955991 -64 153 C-62.125 149.5 -62.125 149.5 -60 147 C-59.30669173 145.68032357 -58.63446546 144.34895359 -58 143 C-73.53944915 123.54557336 -87.5480199 116.63942884 -112 113 C-106.87655629 106.80159881 -101.28185028 101.14668732 -95.58837891 95.47485352 C-94.54295719 94.42971433 -93.49775654 93.38435399 -92.45275879 92.33879089 C-89.63312398 89.51887071 -86.81042992 86.70203131 -83.98715258 83.88575864 C-81.03051814 80.93540106 -78.0767399 77.98218671 -75.12265015 75.02928162 C-69.53621592 69.44594797 -63.94723883 63.86516704 -58.35733068 58.28531164 C-51.9901535 51.92933522 -45.62583606 45.57049857 -39.26175046 39.21142685 C-26.17766701 26.13777896 -13.09001857 13.0677052 0 0 Z " fill="#966947" transform="translate(432,144)"/>
<path d="M0 0 C5.01791684 2.41935276 8.49958655 5.9991731 11 11 C11.51457231 16.63498856 11.83428571 21.44266668 9.125 26.5 C8.073125 27.7375 8.073125 27.7375 7 29 C6.30669173 30.31967643 5.63446546 31.65104641 5 33 C20.53944915 52.45442664 34.5480199 59.36057116 59 63 C53.87655629 69.19840119 48.28185028 74.85331268 42.58837891 80.52514648 C41.54295719 81.57028567 40.49775654 82.61564601 39.45275879 83.66120911 C36.63312398 86.48112929 33.81042992 89.29796869 30.98715258 92.11424136 C28.03051814 95.06459894 25.0767399 98.01781329 22.12265015 100.97071838 C16.53621592 106.55405203 10.94723883 112.13483296 5.35733068 117.71468836 C-1.0098465 124.07066478 -7.37416394 130.42950143 -13.73824954 136.78857315 C-26.82233299 149.86222104 -39.90998143 162.9322948 -53 176 C-54.74364773 172.69679353 -55.42946346 169.97013547 -55.953125 166.2578125 C-59.56746024 145.30385581 -67.90973938 135.28058866 -84 122 C-86.54056427 123.19492641 -88.32976716 124.28030209 -90.5 126.125 C-95.62238687 128.86913582 -100.30371848 128.77463169 -106 128 C-111.01791684 125.58064724 -114.49958655 122.0008269 -117 117 C-117.17455695 115.0884583 -117.26715146 113.16895944 -117.3125 111.25 C-117.34988281 110.22390625 -117.38726562 109.1978125 -117.42578125 108.140625 C-116.36002722 100.27946684 -109.0474458 94.76425529 -103.70507812 89.44628906 C-102.75491132 88.49340885 -101.80516978 87.54010443 -100.8558197 86.58641052 C-98.28821024 84.00971884 -95.71435769 81.43935087 -93.13902855 78.87037754 C-90.44063539 76.17706304 -87.74714243 73.47885506 -85.05285645 70.78143311 C-80.53052724 66.25547094 -76.00400985 61.73372967 -71.47509766 57.21435547 C-66.2408088 51.99096302 -61.01378148 46.76038695 -55.79044199 41.52604699 C-51.30059873 37.02712745 -46.80686935 32.53211747 -42.30986929 28.04035163 C-39.62605737 25.35965583 -36.9436106 22.67763151 -34.2646637 19.99207306 C-31.74767683 17.46930797 -29.22584592 14.95148749 -26.70019722 12.4373951 C-25.33313556 11.07423737 -23.97099059 9.70615443 -22.60899353 8.3379364 C-21.79310257 7.52768509 -20.97721161 6.71743378 -20.13659668 5.88262939 C-19.43016777 5.17695454 -18.72373886 4.47127968 -17.99590302 3.74422073 C-12.61900386 -0.95465437 -6.86096716 -0.74495756 0 0 Z " fill="#966846" transform="translate(309,16)"/>
<path d="M0 0 C0.78211294 -0.00453111 1.56422589 -0.00906223 2.37003922 -0.01373065 C4.98147435 -0.02635485 7.5927004 -0.02475556 10.2041626 -0.02310181 C12.08042671 -0.02908835 13.95668836 -0.03589419 15.83294678 -0.04345703 C20.92402284 -0.06111278 26.01503165 -0.06581227 31.10613537 -0.0670886 C34.28927241 -0.06851116 37.4723924 -0.07278277 40.65552521 -0.07808304 C51.76745182 -0.09658287 62.87933047 -0.10475383 73.99127197 -0.10317993 C84.33751553 -0.10197899 94.68355031 -0.12307226 105.02974105 -0.15466726 C113.92167443 -0.18085037 122.81353971 -0.19154635 131.70551133 -0.19026911 C137.01214072 -0.18976002 142.3185846 -0.19541394 147.62517548 -0.21662521 C152.61900257 -0.23604146 157.61246786 -0.23610885 162.60630798 -0.22159195 C164.43398316 -0.21950687 166.26168118 -0.22418676 168.08931732 -0.23631287 C179.94081844 -0.30982142 190.41331384 0.05390767 199.52545166 8.56430054 C210.21675962 20.45565327 208.05670166 31.4587053 208.05670166 48.26742554 C128.85670166 48.26742554 49.65670166 48.26742554 -31.94329834 48.26742554 C-31.94329834 17.68219826 -31.94329834 17.68219826 -23.64642334 8.79867554 C-16.67513172 2.53090876 -9.3456737 -0.04004829 0 0 Z " fill="#663F24" transform="translate(255.94329833984375,399.7325744628906)"/>
<path d="M0 0 C1.45643616 1.47644043 1.45643616 1.47644043 3.14477539 3.51367188 C6.80213778 7.81224288 10.67889893 11.80769164 14.68359375 15.78125 C15.38396255 16.48020386 16.08433136 17.17915771 16.80592346 17.89929199 C19.01408458 20.10191539 21.22572037 22.30101081 23.4375 24.5 C24.94749814 26.00497508 26.4572659 27.51018135 27.96679688 29.015625 C31.64187641 32.67975829 35.32007356 36.3407348 39 40 C34.32250899 45.61976244 29.32878515 50.80771336 24.14892578 55.96459961 C23.27998184 56.83368958 22.4110379 57.70277954 21.51576233 58.59820557 C19.15229056 60.96110345 16.78663472 63.32177261 14.41994715 65.68144679 C11.93977074 68.15533681 9.46245962 70.63209282 6.98483276 73.10853577 C2.30150662 77.78876409 -2.38436089 82.46643926 -7.0711652 87.14318424 C-12.41055478 92.47136436 -17.74707705 97.80241237 -23.08336997 103.13369358 C-34.05241075 114.09230509 -45.02501563 125.04734076 -56 136 C-59.7441247 132.83286438 -63.45220368 129.67439178 -66.91577148 126.19775391 C-67.59594833 125.51750153 -68.27612518 124.83724915 -68.97691345 124.13638306 C-69.68449295 123.42364227 -70.39207245 122.71090149 -71.12109375 121.9765625 C-72.23823509 120.85729874 -72.23823509 120.85729874 -73.37794495 119.71542358 C-75.73350827 117.35430611 -78.08555216 114.98971838 -80.4375 112.625 C-82.04338763 111.01409144 -83.64950516 109.40341204 -85.25585938 107.79296875 C-89.1732354 103.86462459 -93.08752863 99.93322829 -97 96 C-92.32626413 90.3892978 -87.34397818 85.19581675 -82.18066406 80.03540039 C-81.31493271 79.16631042 -80.44920135 78.29722046 -79.55723572 77.40179443 C-77.20203094 75.03876345 -74.84460925 72.67799341 -72.48581028 70.31855321 C-71.01145155 68.84348078 -69.53780829 67.36769741 -68.06441498 65.89166069 C-62.92290215 60.74092723 -57.77884419 55.5927518 -52.63232422 50.44702148 C-47.83453676 45.64983729 -43.04238313 40.84707503 -38.25277352 36.04172713 C-34.13476802 31.9106726 -30.01294342 27.78345551 -25.88808799 23.65924066 C-23.42655986 21.19796785 -20.96661995 18.73515669 -18.51050568 16.2684803 C-15.77980882 13.52635778 -13.04120051 10.7922246 -10.30175781 8.05883789 C-9.48615891 7.23761948 -8.67056 6.41640106 -7.83024597 5.57029724 C-7.08730789 4.83155365 -6.34436981 4.09281006 -5.57891846 3.3316803 C-4.93223835 2.68445542 -4.28555824 2.03723055 -3.61928177 1.3703928 C-2 0 -2 0 0 0 Z " fill="#764B2E" transform="translate(377,120)"/>
<path d="M0 0 C92.4 0 184.8 0 280 0 C280 7.92 280 15.84 280 24 C187.6 24 95.2 24 0 24 C0 16.08 0 8.16 0 0 Z " fill="#674025" transform="translate(192,472)"/>
<path d="M0 0 C5.28 0 10.56 0 16 0 C16 5.28 16 10.56 16 16 C31.84 16 47.68 16 64 16 C64 21.28 64 26.56 64 32 C58.72 32 53.44 32 48 32 C48 42.56 48 53.12 48 64 C50.64 64 53.28 64 56 64 C56 69.28 56 74.56 56 80 C45.44 80 34.88 80 24 80 C24 74.72 24 69.44 24 64 C26.64 64 29.28 64 32 64 C32 53.44 32 42.88 32 32 C26.72 32 21.44 32 16 32 C16 55.76 16 79.52 16 104 C21.28 104 26.56 104 32 104 C32 109.28 32 114.56 32 120 C16.16 120 0.32 120 -16 120 C-16 114.72 -16 109.44 -16 104 C-10.72 104 -5.44 104 0 104 C0 80.24 0 56.48 0 32 C-5.28 32 -10.56 32 -16 32 C-16 42.56 -16 53.12 -16 64 C-13.36 64 -10.72 64 -8 64 C-8 69.28 -8 74.56 -8 80 C-18.56 80 -29.12 80 -40 80 C-40 74.72 -40 69.44 -40 64 C-37.36 64 -34.72 64 -32 64 C-32 53.44 -32 42.88 -32 32 C-37.28 32 -42.56 32 -48 32 C-48 26.72 -48 21.44 -48 16 C-32.16 16 -16.32 16 0 16 C0 10.72 0 5.44 0 0 Z " fill="#EFAE42" transform="translate(96,160)"/>
<path d="M0 0 C5.01791684 2.41935276 8.49958655 5.9991731 11 11 C11.17455695 12.9115417 11.26715146 14.83104056 11.3125 16.75 C11.36857422 18.28914063 11.36857422 18.28914063 11.42578125 19.859375 C10.36002722 27.72053316 3.0474458 33.23574471 -2.29492188 38.55371094 C-3.24508868 39.50659115 -4.19483022 40.45989557 -5.1441803 41.41358948 C-7.71178976 43.99028116 -10.28564231 46.56064913 -12.86097145 49.12962246 C-15.55936461 51.82293696 -18.25285757 54.52114494 -20.94714355 57.21856689 C-25.46947276 61.74452906 -29.99599015 66.26627033 -34.52490234 70.78564453 C-39.7591912 76.00903698 -44.98621852 81.23961305 -50.20955801 86.47395301 C-54.69940127 90.97287255 -59.19313065 95.46788253 -63.69013071 99.95964837 C-66.37394263 102.64034417 -69.0563894 105.32236849 -71.7353363 108.00792694 C-74.25232317 110.53069203 -76.77415408 113.04851251 -79.29980278 115.5626049 C-80.66686444 116.92576263 -82.02900941 118.29384557 -83.39100647 119.6620636 C-84.61484291 120.87744057 -84.61484291 120.87744057 -85.86340332 122.11737061 C-86.56983223 122.82304546 -87.27626114 123.52872032 -88.00409698 124.25577927 C-92.74815652 128.40161548 -96.96088283 128.42817732 -103.0859375 128.31640625 C-108.35951314 127.74380621 -110.92698274 125.21801959 -114.3125 121.375 C-116.87773278 117.76467239 -117.20811873 115.66697584 -117.3125 111.25 C-117.34988281 110.22390625 -117.38726562 109.1978125 -117.42578125 108.140625 C-116.36002722 100.27946684 -109.0474458 94.76425529 -103.70507812 89.44628906 C-102.75491132 88.49340885 -101.80516978 87.54010443 -100.8558197 86.58641052 C-98.28821024 84.00971884 -95.71435769 81.43935087 -93.13902855 78.87037754 C-90.44063539 76.17706304 -87.74714243 73.47885506 -85.05285645 70.78143311 C-80.53052724 66.25547094 -76.00400985 61.73372967 -71.47509766 57.21435547 C-66.2408088 51.99096302 -61.01378148 46.76038695 -55.79044199 41.52604699 C-51.30059873 37.02712745 -46.80686935 32.53211747 -42.30986929 28.04035163 C-39.62605737 25.35965583 -36.9436106 22.67763151 -34.2646637 19.99207306 C-31.74767683 17.46930797 -29.22584592 14.95148749 -26.70019722 12.4373951 C-25.33313556 11.07423737 -23.97099059 9.70615443 -22.60899353 8.3379364 C-21.79310257 7.52768509 -20.97721161 6.71743378 -20.13659668 5.88262939 C-19.43016777 5.17695454 -18.72373886 4.47127968 -17.99590302 3.74422073 C-12.61900386 -0.95465437 -6.86096716 -0.74495756 0 0 Z " fill="#C08D58" transform="translate(485,192)"/>
<path d="M0 0 C5.01791684 2.41935276 8.49958655 5.9991731 11 11 C11.17455695 12.9115417 11.26715146 14.83104056 11.3125 16.75 C11.36857422 18.28914063 11.36857422 18.28914063 11.42578125 19.859375 C10.36002722 27.72053316 3.0474458 33.23574471 -2.29492188 38.55371094 C-3.24508868 39.50659115 -4.19483022 40.45989557 -5.1441803 41.41358948 C-7.71178976 43.99028116 -10.28564231 46.56064913 -12.86097145 49.12962246 C-15.55936461 51.82293696 -18.25285757 54.52114494 -20.94714355 57.21856689 C-25.46947276 61.74452906 -29.99599015 66.26627033 -34.52490234 70.78564453 C-39.7591912 76.00903698 -44.98621852 81.23961305 -50.20955801 86.47395301 C-54.69940127 90.97287255 -59.19313065 95.46788253 -63.69013071 99.95964837 C-66.37394263 102.64034417 -69.0563894 105.32236849 -71.7353363 108.00792694 C-74.25232317 110.53069203 -76.77415408 113.04851251 -79.29980278 115.5626049 C-80.66686444 116.92576263 -82.02900941 118.29384557 -83.39100647 119.6620636 C-84.61484291 120.87744057 -84.61484291 120.87744057 -85.86340332 122.11737061 C-86.56983223 122.82304546 -87.27626114 123.52872032 -88.00409698 124.25577927 C-92.74815652 128.40161548 -96.96088283 128.42817732 -103.0859375 128.31640625 C-108.35951314 127.74380621 -110.92698274 125.21801959 -114.3125 121.375 C-116.87773278 117.76467239 -117.20811873 115.66697584 -117.3125 111.25 C-117.34988281 110.22390625 -117.38726562 109.1978125 -117.42578125 108.140625 C-116.36002722 100.27946684 -109.0474458 94.76425529 -103.70507812 89.44628906 C-102.75491132 88.49340885 -101.80516978 87.54010443 -100.8558197 86.58641052 C-98.28821024 84.00971884 -95.71435769 81.43935087 -93.13902855 78.87037754 C-90.44063539 76.17706304 -87.74714243 73.47885506 -85.05285645 70.78143311 C-80.53052724 66.25547094 -76.00400985 61.73372967 -71.47509766 57.21435547 C-66.2408088 51.99096302 -61.01378148 46.76038695 -55.79044199 41.52604699 C-51.30059873 37.02712745 -46.80686935 32.53211747 -42.30986929 28.04035163 C-39.62605737 25.35965583 -36.9436106 22.67763151 -34.2646637 19.99207306 C-31.74767683 17.46930797 -29.22584592 14.95148749 -26.70019722 12.4373951 C-25.33313556 11.07423737 -23.97099059 9.70615443 -22.60899353 8.3379364 C-21.79310257 7.52768509 -20.97721161 6.71743378 -20.13659668 5.88262939 C-19.43016777 5.17695454 -18.72373886 4.47127968 -17.99590302 3.74422073 C-12.61900386 -0.95465437 -6.86096716 -0.74495756 0 0 Z " fill="#C08D58" transform="translate(309,16)"/>
<path d="M0 0 C4.17615799 1.63743934 6.9648153 4.69781792 10.05371094 7.82666016 C10.64926285 8.42192001 11.24481476 9.01717987 11.8584137 9.63047791 C13.82184643 11.59530177 15.77810373 13.56711039 17.734375 15.5390625 C19.0958564 16.90427479 20.45778061 18.26904561 21.82012939 19.63339233 C25.40183824 23.22273159 28.9774999 26.8180368 32.55194092 30.41461182 C36.20157121 34.08471319 39.85688092 37.74914829 43.51171875 41.4140625 C50.68005329 48.60383652 57.842013 55.79992516 65 63 C62.8919863 67.36938089 60.10647183 70.22500137 56.6875 73.625 C55.83381836 74.50285156 55.83381836 74.50285156 54.96289062 75.3984375 C50.00061428 80.36641106 46.34645146 82.17144996 39.16015625 82.36328125 C33.75427073 81.45415403 29.90703747 78.28391551 26.12792969 74.51611328 C25.21388367 73.61152374 24.29983765 72.7069342 23.35809326 71.77493286 C22.37897042 70.79044059 21.40024031 69.80555759 20.421875 68.8203125 C19.40434772 67.80480853 18.38637566 66.78975005 17.36798096 65.77511597 C15.24171247 63.65325669 13.12093009 61.52610128 11.00390625 59.39501953 C8.29498862 56.66898909 5.57279429 53.95667917 2.84635544 51.24818611 C0.74422615 49.15691393 -1.35068519 47.05852849 -3.44350433 44.95794296 C-4.44440528 43.95504647 -5.44752382 42.95435795 -6.45291901 41.95596695 C-7.85772199 40.55881188 -9.25185267 39.15095099 -10.64550781 37.74267578 C-11.44015442 36.9456424 -12.23480103 36.14860901 -13.05352783 35.3274231 C-16.5361214 31.16323887 -17.21961701 27.54203978 -17.36328125 22.16015625 C-16.21835379 15.35214674 -11.56019268 11.18697552 -6.8125 6.625 C-6.15830078 5.98433594 -5.50410156 5.34367188 -4.83007812 4.68359375 C-3.22669078 3.11531708 -1.61671128 1.55451781 0 0 Z " fill="#442518" transform="translate(255,192)"/>
</svg>
